<svg height="150px" width="150px" version="1.1" id="_x32_" xmlns="http://www.w3.org/2000/svg" xmlns:xlink="http://www.w3.org/1999/xlink" viewBox="0 0 512 512" xml:space="preserve" fill="#000" stroke="#000"><g id="SVGRepo_bgCarrier" stroke-width="0"></g><g id="SVGRepo_tracerCarrier" stroke-linecap="round" stroke-linejoin="round"></g><g id="SVGRepo_iconCarrier"> <style type="text/css"> .st0{fill:#dba503;} </style> <g> <path class="st0" d="M270.968,311.978c0,0-8.044,2.96-13.964,2.96c-5.92,0-15.624-2.96-15.624-2.96s2.368,31.358,2.368,39.054 c0,7.69-4.736,9.473-2.368,16.57c2.368,7.098,8.874,7.098,14.794,7.098c5.92,0,12.426,0,14.794-7.098 c2.368-7.098-2.368-8.881-2.368-16.57C268.6,343.336,270.968,311.978,270.968,311.978z"></path> <path class="st0" d="M440.087,403.343c-12.432-18.619-31.317-28.915-49.065-35.604c-8.9-3.348-17.598-5.818-25.26-7.914 c-7.648-2.082-14.304-3.838-18.775-5.519c-7.819-2.906-16.08-6.669-21.844-10.718c-2.879-2.008-5.097-4.076-6.383-5.839 c-1.279-1.776-1.633-3.008-1.654-4.09c1.314,0.007,2.715,0.014,4.246,0.014c9.588,0,22.824-0.15,34.38-0.837 c5.791-0.348,11.146-0.817,15.596-1.525c2.239-0.361,4.24-0.768,6.132-1.348c0.946-0.292,1.872-0.626,2.844-1.096 c0.932-0.47,1.946-1.061,3.063-2.136l0.013,0.013c0.027-0.027,0.061-0.061,0.088-0.088c0.007-0.013,0.014-0.013,0.027-0.027 c0.946-0.953,1.844-1.987,3.083-3.457c3.743-4.464,9.861-12.269,16.638-21.095l0.014-0.014c6.39-8.356,13.249-17.598,19.013-25.614 c3.811-5.288,7.132-10.058,9.582-13.835c1.231-1.899,2.239-3.532,3.035-4.988c0.402-0.742,0.755-1.429,1.089-2.219l0.49-1.401 c0.15-0.572,0.333-1.246,0.347-2.45c-0.02-1.007-0.088-1.225-0.143-1.654c-0.177-1.089-0.456-2.402-0.905-4.267l-0.061-0.232 l0.061,0.259c-1.198-5.022-3.437-14.039-6.444-25.587l-0.027-0.089l0.014,0.027c-1.946-7.206-4.165-15.549-6.608-24.464 c-2.11-8.098-4.484-16.7-6.934-25.492c-2.164-8.119-4.464-16.346-6.757-24.539c-2.443-8.669-4.893-17.251-7.268-25.492 l-0.075-0.259c-1.232-4.315-2.464-8.574-3.716-12.719l-0.021-0.075l0.048,0.144c-2.736-9.398-5.403-18.095-7.785-25.614v0.02 c-3.457-10.997-6.302-19.374-8.425-24.348l-0.082-0.191l-0.088-0.177c-0.538-1.061-0.898-1.932-1.688-3.232l0.054,0.082 l-0.034-0.054c-0.94-1.49-1.932-2.607-3.137-3.865c-3.573-3.654-9.146-8.132-16.543-13.216 c-9.092-6.247-20.939-13.202-34.563-19.333c-7.71-3.525-15.93-6.778-24.572-9.466l0.027,0.014 c-13.835-4.356-28.629-7.261-43.634-7.601V0c-0.477,0-0.946,0.061-1.422,0.068C255.581,0.061,255.112,0,254.636,0v0.136 c-15.006,0.34-29.8,3.246-43.634,7.601l0.027-0.014c-8.642,2.688-16.863,5.941-24.573,9.466 c-13.624,6.132-25.472,13.086-34.563,19.333c-4.92,3.376-9.064,6.526-12.31,9.296c-1.626,1.395-3.035,2.688-4.232,3.92 c-1.205,1.258-2.198,2.375-3.137,3.865c0.007-0.007,0.007-0.021,0.013-0.027l-0.122,0.197l0.102-0.157 c-0.762,1.272-1.13,2.144-1.66,3.192l-0.082,0.17l-0.088,0.198c-2.116,4.961-4.954,13.317-8.411,24.28 c-0.004,0.021-0.011,0.034-0.014,0.048l0,0c-2.382,7.52-5.05,16.216-7.785,25.614v-0.007c-1.266,4.212-2.518,8.547-3.77,12.936 l0.096-0.333l-0.096,0.313c-2.368,8.241-4.818,16.822-7.254,25.478c-2.3,8.208-4.6,16.434-6.764,24.553 c-2.449,8.792-4.825,17.394-6.934,25.492c-2.443,8.915-4.661,17.258-6.608,24.464l-0.028,0.123 c-2.96,11.365-5.165,20.238-6.383,25.294c-0.013,0.062-0.04,0.163-0.054,0.232l0.004-0.014c-0.289,1.225-0.521,2.246-0.691,3.076 l-0.211,1.178c-0.054,0.428-0.129,0.646-0.15,1.654c0.021,1.204,0.204,1.878,0.354,2.45c0.606,1.973,1.218,2.953,2.049,4.457 c2.429,4.212,6.777,10.521,12.146,17.986c5.764,8.016,12.623,17.257,19.013,25.614l0.014,0.014 c4.512,5.879,8.751,11.324,12.168,15.604c1.708,2.144,3.212,4.002,4.471,5.492c1.238,1.47,2.137,2.504,3.083,3.457 c0.013,0.014,0.02,0.014,0.027,0.027c0.027,0.027,0.062,0.061,0.089,0.088l0.013-0.013c1.109,1.075,2.123,1.667,3.056,2.13 c1.824,0.878,3.511,1.334,5.403,1.776c6.499,1.429,15.652,2.083,25.533,2.518c9.833,0.415,20.156,0.517,28.023,0.517 c1.49,0,2.858-0.007,4.145-0.014c-0.007,0.926-0.388,2.246-1.804,4.117c-2.096,2.831-6.458,6.261-11.636,9.167 c-5.166,2.939-11.106,5.485-16.305,7.315c-6.104,2.164-15.938,4.417-26.955,7.574c-16.556,4.791-36.128,11.684-52.052,25.342 c-7.948,6.826-14.93,15.4-19.837,26.057c-4.92,10.65-7.73,23.307-7.724,38.115c0,3.437,0.15,6.989,0.462,10.664 c0.225,2.579,1.205,4.668,2.355,6.396c2.192,3.219,5.097,5.608,8.738,8.064c6.377,4.219,15.21,8.343,26.52,12.392 c33.848,12.072,89.888,23.123,159.334,23.137c56.421,0,104.043-7.322,138.034-16.523c17.006-4.614,30.582-9.656,40.395-14.699 c4.913-2.538,8.887-5.049,12.038-7.798c1.579-1.388,2.961-2.844,4.124-4.573c1.144-1.728,2.13-3.817,2.355-6.396 c0.306-3.668,0.456-7.214,0.456-10.636C453.432,431.632,448.362,415.722,440.087,403.343z M379.066,308.12 c-1.661,2.082-3.103,3.858-4.233,5.199c-0.735,0.884-1.279,1.497-1.66,1.919c-0.34,0.116-0.844,0.272-1.626,0.442 c-4.396,1.014-13.393,1.783-22.824,2.158c-9.486,0.401-19.646,0.504-27.37,0.504c-2.736,0-5.009-0.014-6.995-0.027 c0-4.321,0-9.153,0-14.529c1.742-1.932,3.593-4.056,5.552-6.376h67.554C384.361,301.417,381.482,305.099,379.066,308.12z M306.408,346.834c1.102,1.478,2.334,2.831,3.641,4.118c-2.45,8.921-6.826,15.441-12.154,20.443 c-8.051,7.56-18.49,11.548-26.975,13.521c-4.234,0.994-7.955,1.491-10.582,1.735c-1.32,0.123-2.355,0.184-3.056,0.218l-0.769,0.027 h-0.204h-0.068c-1.041,0-12.616-0.327-24.688-5.132c-6.043-2.395-12.181-5.872-17.333-10.854 c-5.151-4.988-9.384-11.44-11.738-20.218l-0.123-0.456c1.014-1.041,2.076-2.035,2.96-3.192c2.783-3.647,4.92-8.214,4.92-13.433 h0.054c0-8.132,0-18.292,0-32.229v-2.409l-1.606-1.79c-10.453-11.637-24.886-27.39-29.847-55.25l-0.64-3.593l-3.43-1.225 c-5.485-2.041-8.575-3.844-12.249-8.846c-3.634-5.036-7.445-13.828-11.698-28.779c-1.422-4.968-1.946-8.887-1.946-11.861 c0.007-3.457,0.674-5.608,1.435-7.044c1.158-2.109,2.668-3.076,4.396-3.75c1.688-0.646,3.437-0.728,3.743-0.714l6.547,0.401v-6.668 c0,0,0-10.63,0-25.805h182.117c-0.006,15.175-0.006,25.805-0.006,25.805v6.689l6.553-0.422c0.449-0.034,3.348,0.184,5.39,1.518 c1.055,0.673,1.967,1.511,2.743,2.946c0.762,1.436,1.429,3.593,1.435,7.044c0.007,2.974-0.524,6.893-1.939,11.861 c-4.253,14.951-8.064,23.743-11.698,28.779c-3.674,5.002-6.764,6.806-12.249,8.846l-3.43,1.225l-0.64,3.593 c-4.961,27.86-19.394,43.614-29.847,55.25l-1.612,1.79v2.409c0,13.937,0,24.096,0,32.229h-0.048 C301.754,338.661,303.72,343.207,306.408,346.834z M275.153,75.305c-3.184,3.321-5.737,6.526-7.71,9.37h-23.212 c-1.974-2.845-4.526-6.05-7.711-9.37H275.153z M233.118,70.976c-1.334-2.395-2.022-5.11-2.028-7.866 c-0.006-3.116,0.858-6.152,2.198-8.295c1.245-1.98,2.708-3.09,4.274-3.546c1.415,1.157,2.83,2.409,3.851,3.831 c3.607,5.056,6.492,8.656,14.427,8.656c7.935,0,10.82-3.6,14.426-8.656c1.014-1.422,2.436-2.674,3.852-3.831 c1.558,0.456,3.028,1.565,4.267,3.546c1.34,2.144,2.205,5.179,2.198,8.295c-0.007,2.756-0.694,5.472-2.028,7.866H233.118z M264.653,89.003c-2.117,3.607-3.076,6.03-3.158,6.227l-0.442,1.15l0.17,1.212c0.006,0.088,0.088,0.803,0.088,1.817 c0.02,1.742-0.307,4.308-1.185,5.913c-0.428,0.824-0.918,1.395-1.565,1.831c-0.646,0.436-1.51,0.803-3.069,0.905l-0.197,0.007 c-0.708-0.034-0.96-0.15-1.518-0.598c-0.81-0.654-1.838-2.477-2.423-4.628c-0.612-2.123-0.857-4.512-0.857-5.893V96.06l-0.313-0.83 c-0.082-0.197-1.041-2.62-3.164-6.227H264.653z M420.394,247.446c0.143,0.579,0.32,1.286,0.436,1.783l0.006,0.027 c0.13,0.531,0.245,1.007,0.334,1.422c-0.136,0.251-0.245,0.462-0.428,0.762c-1.967,3.307-6.043,9.262-10.936,16.053 c-1.034,1.442-2.143,2.96-3.253,4.478h-69.928c3.416-7.071,6.288-15.162,8.214-24.396c0.109-0.041,0.211-0.082,0.32-0.13H420.394z M407.321,197.483c0.163,0.633,0.354,1.307,0.517,1.933l0.027,0.095c2.212,8.098,4.246,15.706,6.07,22.498H366.96 c2.136-5.247,4.212-11.487,6.39-19.074c0.558-1.946,0.864-3.675,1.225-5.452H407.321z M393.629,147.588 c0.198,0.701,0.395,1.381,0.592,2.082c2.109,7.54,4.192,15.046,6.186,22.443h-29.276c-2.742-3.661-6.294-5.913-9.343-7.03 c-0.748-0.279-1.449-0.47-2.136-0.653c0-4.199,0-10.344,0-16.843H393.629z M382.598,109.262c0.204,0.721,0.415,1.408,0.626,2.136 l0.047,0.157l-0.027-0.082c1.041,3.443,2.082,7.05,3.123,10.677h-29.234v-8.772H337.63l2.926-4.117H382.598z M358.127,84.478 l11.488-16.176c1.606,4.417,3.647,10.548,5.926,17.823l0.007,0.02c0.408,1.286,0.837,2.648,1.259,4.002h-22.688L358.127,84.478z M351.54,49.166l0.02,0.014c0.436,0.3,0.769,0.558,1.191,0.851l-44.927,63.348h-8.826l26.369-79.334 C335.548,39.02,344.571,44.362,351.54,49.166z M215.574,22.368l0.027-0.013c9.112-2.872,18.55-4.961,28.002-6.084v5.356h25.404 v-5.294c9.282,1.143,18.551,3.198,27.506,6.023l0.027,0.013c3.457,1.075,6.84,2.293,10.174,3.552l-29.092,87.459h-11.746 c1.994-1.987,3.198-4.362,3.886-6.526c0.891-2.851,1.061-5.506,1.068-7.445c0-0.647-0.021-1.184-0.054-1.661 c1.096-2.375,4.709-9.398,12.228-16.917c4.988-4.995,7.105-11.562,7.098-17.72c-0.007-4.791-1.232-9.432-3.62-13.31 c-1.946-3.158-4.859-5.805-8.5-7.214c-4.021-4.478-2.239-14.89-17.815-14.89h-4.328h-4.328c-15.577,0-13.794,10.412-17.822,14.89 c-3.641,1.409-6.547,4.056-8.493,7.214c-2.395,3.879-3.62,8.52-3.627,13.31c-0.006,6.159,2.11,12.726,7.098,17.72 c4.73,4.73,7.928,9.282,9.929,12.61c0.994,1.667,1.695,3.022,2.13,3.933l0.306,0.674c0.13,2.987,0.687,6.791,2.293,10.575 c0.714,1.66,1.77,3.266,3.09,4.756h-11.923L205.4,25.92C208.735,24.661,212.118,23.443,215.574,22.368z M160.556,49.18l0.02-0.014 c6.968-4.804,15.992-10.146,26.173-15.121l26.369,79.334h-8.826l-44.927-63.355C159.773,49.738,160.127,49.473,160.556,49.18z M136.568,86.145l0.074-0.251l-0.074,0.231c2.286-7.275,4.328-13.406,5.934-17.823l11.487,16.176l4.008,5.669h-22.688 C135.73,88.793,136.159,87.432,136.568,86.145z M128.864,111.474l-0.02,0.075l0.048-0.15c0.211-0.728,0.422-1.415,0.626-2.136 h42.042l2.926,4.117h-19.503v8.772h-29.234C126.789,118.524,127.83,114.917,128.864,111.474z M117.901,149.657 c0.197-0.694,0.388-1.374,0.585-2.068h33.971c0,6.519,0,12.685,0,16.876c-1.845,0.497-3.879,1.218-6.03,2.532 c-1.898,1.171-3.702,2.988-5.321,5.118h-29.398C113.702,164.717,115.785,157.21,117.901,149.657z M104.25,199.511l0.027-0.095 c0.163-0.626,0.354-1.3,0.517-1.933h32.746c0.361,1.776,0.667,3.505,1.225,5.452c2.171,7.587,4.247,13.827,6.39,19.074H98.18 C100.004,215.217,102.038,207.609,104.25,199.511z M105.564,271.972c-1.102-1.518-2.219-3.036-3.253-4.478 c-3.716-5.165-6.948-9.806-9.16-13.222c-0.973-1.497-1.701-2.695-2.205-3.586c0.102-0.436,0.191-0.864,0.334-1.429v-0.027 c0.116-0.497,0.292-1.204,0.436-1.783h75.243c0.109,0.048,0.211,0.082,0.32,0.13c1.926,9.234,4.798,17.326,8.214,24.396H105.564z M190.763,318.341c-9.418,0-22.463-0.15-33.474-0.81c-5.492-0.32-10.493-0.782-14.087-1.361c-1.789-0.28-3.232-0.606-4.042-0.858 l-0.218-0.074c-0.381-0.422-0.926-1.035-1.661-1.919c-2.783-3.307-7.397-9.146-12.623-15.91h67.548 c1.952,2.314,3.804,4.437,5.546,6.369c0,5.376,0,10.215,0,14.536C195.765,318.328,193.492,318.341,190.763,318.341z M149.769,375.953c10.412-3.389,21.218-7.05,30.29-10.446c4.532-1.694,8.636-3.32,12.065-4.838 c0.885-0.394,1.586-0.748,2.376-1.123c3.15,8.003,7.737,14.494,13.079,19.476c10.01,9.343,22.157,13.814,31.732,16.074 c9.596,2.239,16.727,2.246,17,2.253c0.367-0.014,12.909,0.006,27.254-5.349c7.166-2.688,14.815-6.744,21.477-12.977 c5.342-4.982,9.929-11.473,13.079-19.476c0.79,0.374,1.49,0.728,2.375,1.123c11.956,5.267,32.406,12.126,50.058,17.768 c9.759,3.11,18.516,5.805,24.492,7.615c0.701,0.32,1.388,0.667,2.082,1c-7.975,17.686-19.442,31.283-32.596,41.824 c-21.743,17.421-48.085,26.417-69.385,30.95c-21.293,4.539-37.468,4.641-38.728,4.641h-0.054h-0.116h-0.054 c-1.674,0.014-29.881-0.197-61.348-10.806c-15.733-5.294-32.256-13.174-46.758-24.784c-13.236-10.602-24.764-24.308-32.739-42.157 C122.556,384.548,135.785,380.506,149.769,375.953z M437.699,460.043l-0.66,0.783c-1.13,1.144-3.409,2.865-6.614,4.689 c-11.304,6.526-33.61,14.536-63.552,20.626c-29.99,6.138-67.785,10.534-110.869,10.534c-55.073,0-101.524-7.194-134.026-15.992 c-16.236-4.389-29.01-9.214-37.387-13.535c-4.178-2.144-7.247-4.185-8.949-5.689c-0.728-0.633-1.137-1.116-1.341-1.395 c-0.232-3.022-0.374-5.941-0.374-8.718c0.027-17.204,4.234-29.772,10.732-39.626c5.539-8.391,13.025-14.876,21.429-20.089 c8.697,19.176,21.28,34.066,35.468,45.404c23.607,18.877,51.439,28.248,73.733,33.011c22.306,4.75,39.143,4.865,40.905,4.872h0.054 h0.061h0.061h0.048c2.362-0.014,31.494-0.19,64.689-11.351c16.591-5.594,34.222-13.944,49.956-26.533 c14.073-11.249,26.573-25.976,35.271-44.928c3.334,2.076,6.533,4.335,9.486,6.867c6.533,5.594,12.004,12.31,15.93,20.762 c3.914,8.465,6.322,18.741,6.322,31.636C438.073,454.13,437.937,457.035,437.699,460.043z"></path> <path class="st0" d="M121.944,81.525c0.003-0.007,0.003-0.014,0.006-0.02V81.49L121.944,81.525z"></path> <path class="st0" d="M401.625,119.721l0.014,0.048c0.027,0.096,0.054,0.183,0.082,0.279L401.625,119.721z"></path> <circle class="st0" cx="256.003" cy="431.02" r="8.71"></circle> <circle class="st0" cx="171.798" cy="397.92" r="8.711"></circle> <circle class="st0" cx="340.202" cy="397.92" r="8.711"></circle> <circle class="st0" cx="207.224" cy="419.403" r="8.71"></circle> <circle class="st0" cx="304.782" cy="419.403" r="8.71"></circle> </g> </g></svg>